:FULLY-SPECIFIED
:FORCE-ALL-JOINTS-BE-3DOF
:DEGREES
437
root 10.3963 17.0018 25.6148 7.48069 -0.234039 -0.637133
lfemur -31.5274 1.97316 -23.6504
ltibia 29.5514 -0 0
lfoot -5.11089 7.19724 0.0313999
ltoes 4.48729 -0 0
rfemur 2.8477 2.71234 20.5663
rtibia 30.4746 -0 0
rfoot 7.7792 5.77989 0.680336
rtoes -17.9832 0 0
lowerback -7.33752 1.5529 -1.53349
upperback -2.31184 2.15564 1.22608
thorax 1.68892 1.076 2.30825
lowerneck -19.2416 -5.91499 -13.6968
upperneck 22.6387 -7.52079 12.8079
head 11.6472 -3.07957 5.8948
lclavicle 1.34606e-14 -2.16383e-15 -1.45179e-31
lhumerus -41.9102 -6.40567 89.2923
lradius 21.8938 -0 0
lwrist -2.72074 0 0
lhand -9.27001 -23.4599 0.0313208
lfingers 7.12502 -0 0
lthumb 16.685 5.82002 0.0252807
rclavicle 1.34606e-14 -2.16383e-15 -1.45179e-31
rhumerus -42.3489 8.69205 -88.8682
rradius 31.6445 -0 0
rwrist -14.2797 0 0
rhand -27.0006 -29.7565 -0.0464407
rfingers 7.12502 -0 0
rthumb -0.420653 -59.7287 -0.0451148
438
root 10.4049 17.0059 25.7412 7.42708 -0.152566 -0.529439
lfemur -30.6648 1.93824 -23.7603
ltibia 28.9831 -0 0
lfoot -5.30013 7.15666 0.0342192
ltoes 4.40204 -0 0
rfemur 2.00715 2.98484 20.4063
rtibia 30.4196 -0 0
rfoot 7.14916 5.51948 0.741765
rtoes -17.9289 0 0
lowerback -7.30144 1.43024 -1.59859
upperback -2.27949 1.99701 1.2295
thorax 1.71417 0.995885 2.33455
lowerneck -19.2858 -5.84281 -13.6092
upperneck 22.6894 -7.42759 12.7465
head 11.6558 -3.03561 5.87416
lclavicle 1.32978e-14 -2.38216e-15 -1.58208e-31
lhumerus -41.3661 -6.72964 89.2982
lradius 22.1409 -0 0
lwrist -2.51294 0 0
lhand -9.40727 -23.5158 0.0341325
lfingers 7.12502 -0 0
lthumb 16.5527 5.77325 0.0275501
rclavicle 1.32978e-14 -2.38216e-15 -1.58208e-31
rhumerus -42.5156 8.68674 -88.8136
rradius 31.7505 -0 0
rwrist -14.3838 0 0
rhand -27.0836 -29.6195 -0.0506098
rfingers 7.12502 -0 0
rthumb -0.500732 -59.5909 -0.0491649
439
root 10.4134 17.01 25.8675 7.37362 -0.0709929 -0.42182
lfemur -29.8022 1.90497 -23.8707
ltibia 28.4148 -0 0
lfoot -5.48937 7.11607 0.0369045
ltoes 4.31679 -0 0
rfemur 1.16562 3.25497 20.2422
rtibia 30.3647 -0 0
rfoot 6.51884 5.25841 0.800327
rtoes -17.8746 0 0
lowerback -7.26523 1.30763 -1.66377
upperback -2.24715 1.83839 1.23283
thorax 1.73937 0.915755 2.36082
lowerneck -19.3298 -5.77056 -13.5215
upperneck 22.74 -7.33434 12.6851
head 11.6643 -2.99166 5.85352
lclavicle 1.3135e-14 -2.6005e-15 -1.70617e-31
lhumerus -40.8217 -7.05365 89.301
lradius 22.388 -0 0
lwrist -2.30513 0 0
lhand -9.54453 -23.5716 0.0368103
lfingers 7.12502 -0 0
lthumb 16.4204 5.72648 0.0297115
rclavicle 1.3135e-14 -2.6005e-15 -1.70617e-31
rhumerus -42.6823 8.68158 -88.7589
rradius 31.8564 -0 0
rwrist -14.4879 0 0
rhand -27.1665 -29.4824 -0.0545806
rfingers 7.12502 -0 0
rthumb -0.580821 -59.453 -0.0530224
440
root 10.422 17.0141 25.9939 7.32031 0.0106807 -0.314278
lfemur -28.9395 1.87336 -23.9816
ltibia 27.8465 -0 0
lfoot -5.67861 7.07547 0.0394557
ltoes 4.23155 -0 0
rfemur 0.323092 3.52266 20.0742
rtibia 30.3098 -0 0
rfoot 5.88825 4.9967 0.856012
rtoes -17.8202 0 0
lowerback -7.22887 1.18506 -1.72902
upperback -2.21482 1.67976 1.23607
thorax 1.76454 0.835612 2.38705
lowerneck -19.3738 -5.69825 -13.434
upperneck 22.7905 -7.24103 12.6238
head 11.6729 -2.9477 5.83289
lclavicle 1.29722e-14 -2.81884e-15 -1.82405e-31
lhumerus -40.2768 -7.37768 89.3007
lradius 22.635 -0 0
lwrist -2.09733 0 0
lhand -9.6818 -23.6275 0.0393544
lfingers 7.12502 -0 0
lthumb 16.2881 5.6797 0.0317649
rclavicle 1.29722e-14 -2.81884e-15 -1.82405e-31
rhumerus -42.849 8.67659 -88.7042
rradius 31.9624 -0 0
rwrist -14.592 0 0
rhand -27.2494 -29.3454 -0.0583531
rfingers 7.12502 -0 0
rthumb -0.660919 -59.3152 -0.0566871
441
root 10.4306 17.0182 26.1202 7.26715 0.0924543 -0.206812
lfemur -28.0768 1.84343 -24.0929
ltibia 27.2782 -0 0
lfoot -5.86785 7.03487 0.0418728
ltoes 4.1463 -0 0
rfemur -0.520474 3.78785 19.9021
rtibia 30.2549 -0 0
rfoot 5.2574 4.7344 0.908814
rtoes -17.7659 0 0
lowerback -7.19238 1.06253 -1.79435
upperback -2.1825 1.52114 1.23922
thorax 1.78968 0.755459 2.41325
lowerneck -19.4176 -5.62587 -13.3465
upperneck 22.8408 -7.14766 12.5626
head 11.6814 -2.90373 5.81227
lclavicle 1.28094e-14 -3.03718e-15 -1.93572e-31
lhumerus -39.7316 -7.70169 89.2973
lradius 22.8821 -0 0
lwrist -1.88952 0 0
lhand -9.81907 -23.6833 0.0417647
lfingers 7.12502 -0 0
lthumb 16.1559 5.63292 0.0337103
rclavicle 1.28094e-14 -3.03718e-15 -1.93572e-31
rhumerus -43.0157 8.67175 -88.6495
rradius 32.0684 -0 0
rwrist -14.6961 0 0
rhand -27.3324 -29.2083 -0.0619272
rfingers 7.12502 -0 0
rthumb -0.741025 -59.1773 -0.0601591
442
root 10.4391 17.0223 26.2466 7.21415 0.174327 -0.0994213
lfemur -27.2141 1.81518 -24.2047
ltibia 26.7099 -0 0
lfoot -6.0571 6.99425 0.0441558
ltoes 4.06105 -0 0
rfemur -1.3651 4.05049 19.7262
rtibia 30.1999 -0 0
rfoot 4.62631 4.47153 0.958725
rtoes -17.7116 0 0
lowerback -7.15575 0.940048 -1.85975
upperback -2.15019 1.36251 1.24228
thorax 1.81477 0.675294 2.43942
lowerneck -19.4614 -5.55343 -13.2591
upperneck 22.8911 -7.05425 12.5015
head 11.6899 -2.85976 5.79165
lclavicle 1.26466e-14 -3.25552e-15 -2.0412e-31
lhumerus -39.1859 -8.02565 89.2908
lradius 23.1292 -0 0
lwrist -1.68172 0 0
lhand -9.95634 -23.7392 0.0440412
lfingers 7.12502 -0 0
lthumb 16.0236 5.58613 0.0355477
rclavicle 1.26466e-14 -3.25552e-15 -2.0412e-31
rhumerus -43.1824 8.66707 -88.5948
rradius 32.1743 -0 0
rwrist -14.8001 0 0
rhand -27.4153 -29.0713 -0.0653029
rfingers 7.12502 -0 0
rthumb -0.82114 -59.0395 -0.0634384
443
root 10.4477 17.0264 26.373 7.1613 0.2563 0.00789409
lfemur -26.3513 1.78861 -24.3169
ltibia 26.1416 -0 0
lfoot -6.24635 6.95363 0.0463046
ltoes 3.9758 -0 0
rfemur -2.21081 4.3105 19.5463
rtibia 30.145 -0 0
rfoot 3.99498 4.20812 1.00574
rtoes -17.6573 0 0
lowerback -7.11899 0.817604 -1.92523
upperback -2.1179 1.20388 1.24525
thorax 1.83983 0.595117 2.46554
lowerneck -19.505 -5.48091 -13.1717
upperneck 22.9412 -6.96078 12.4405
head 11.6984 -2.81579 5.77105
lclavicle 1.24837e-14 -3.47385e-15 -2.14046e-31
lhumerus -38.6398 -8.34954 89.2811
lradius 23.3763 -0 0
lwrist -1.47392 0 0
lhand -10.0936 -23.795 0.0461838
lfingers 7.12502 -0 0
lthumb 15.8913 5.53934 0.037277
rclavicle 1.24837e-14 -3.47385e-15 -2.14046e-31
rhumerus -43.3491 8.66254 -88.54
rradius 32.2803 -0 0
rwrist -14.9042 0 0
rhand -27.4983 -28.9342 -0.0684801
rfingers 7.12502 -0 0
rthumb -0.901262 -58.9016 -0.066525
444
root 10.4562 17.0305 26.4993 7.1086 0.338371 0.115135
lfemur -25.4884 1.76373 -24.4295
ltibia 25.5734 -0 0
lfoot -6.4356 6.91301 0.0483192
ltoes 3.89055 -0 0
rfemur -3.05764 4.56784 19.3625
rtibia 30.0901 -0 0
rfoot 3.36344 3.9442 1.04984
rtoes -17.603 0 0
lowerback -7.08208 0.695201 -1.99078
upperback -2.08561 1.04524 1.24813
thorax 1.86485 0.514929 2.49163
lowerneck -19.5485 -5.40834 -13.0844
upperneck 22.9912 -6.86725 12.3796
head 11.7069 -2.77182 5.75045
lclavicle 1.23209e-14 -3.69219e-15 -2.23353e-31
lhumerus -38.0931 -8.67331 89.2683
lradius 23.6234 -0 0
lwrist -1.26611 0 0
lhand -10.2309 -23.8509 0.0481926
lfingers 7.12502 -0 0
lthumb 15.759 5.49254 0.0388983
rclavicle 1.23209e-14 -3.69219e-15 -2.23353e-31
rhumerus -43.5158 8.65818 -88.4853
rradius 32.3862 -0 0
rwrist -15.0083 0 0
rhand -27.5813 -28.7972 -0.0714589
rfingers 7.12502 -0 0
rthumb -0.981392 -58.7638 -0.0694187
445
root 10.4648 17.0346 26.6257 7.05606 0.42054 0.222301
lfemur -24.6256 1.74055 -24.5424
ltibia 25.0051 -0 0
lfoot -6.62485 6.87237 0.0501996
ltoes 3.80531 -0 0
rfemur -3.9056 4.82244 19.1748
rtibia 30.0352 -0 0
rfoot 2.73169 3.67981 1.09104
rtoes -17.5486 0 0
lowerback -7.04503 0.572841 -2.05641
upperback -2.05333 0.886608 1.25092
thorax 1.88983 0.43473 2.51769
lowerneck -19.5918 -5.33569 -12.9972
upperneck 23.0412 -6.77368 12.3187
head 11.7154 -2.72785 5.72985
lclavicle 1.21581e-14 -3.91053e-15 -2.32039e-31
lhumerus -37.5459 -8.99696 89.2524
lradius 23.8705 -0 0
lwrist -1.05831 0 0
lhand -10.3682 -23.9068 0.0500676
lfingers 7.12502 -0 0
lthumb 15.6267 5.44574 0.0404116
rclavicle 1.21581e-14 -3.91053e-15 -2.32039e-31
rhumerus -43.6825 8.65397 -88.4305
rradius 32.4922 -0 0
rwrist -15.1124 0 0
rhand -27.6642 -28.6601 -0.0742392
rfingers 7.12502 -0 0
rthumb -1.06153 -58.6259 -0.0721196
446
root 10.4734 17.0387 26.752 7.00367 0.502808 0.329393
lfemur -23.7627 1.71908 -24.6557
ltibia 24.4368 -0 0
lfoot -6.8141 6.83173 0.0519458
ltoes 3.72006 -0 0
rfemur -4.75471 5.07424 18.9833
rtibia 29.9802 -0 0
rfoot 2.09976 3.41498 1.12931
rtoes -17.4943 0 0
lowerback -7.00785 0.450524 -2.12212
upperback -2.02106 0.727972 1.25362
thorax 1.91478 0.354519 2.54371
lowerneck -19.6351 -5.26298 -12.91
upperneck 23.091 -6.68005 12.258
head 11.7238 -2.68387 5.70927
lclavicle 1.19953e-14 -4.12887e-15 -2.40104e-31
lhumerus -36.998 -9.32044 89.2334
lradius 24.1176 -0 0
lwrist -0.850503 0 0
lhand -10.5054 -23.9627 0.0518086
lfingers 7.12502 -0 0
lthumb 15.4944 5.39894 0.0418169
rclavicle 1.19953e-14 -4.12887e-15 -2.40104e-31
rhumerus -43.8492 8.64992 -88.3758
rradius 32.5982 -0 0
rwrist -15.2165 0 0
rhand -27.7472 -28.5231 -0.076821
rfingers 7.12502 -0 0
rthumb -1.14167 -58.488 -0.0746277
